<?xml version="1.0" encoding="UTF-8" standalone="no"?>
<!DOCTYPE svg PUBLIC "-//W3C//DTD SVG 1.1//EN"
 "http://www.w3.org/Graphics/SVG/1.1/DTD/svg11.dtd">
<!-- Generated by graphviz version 2.44.0 (20200408.0750)
 -->
<!-- Title: dependencies Pages: 1 -->
<svg width="1014pt" height="284pt"
 viewBox="0.00 0.00 1014.00 284.00" xmlns="http://www.w3.org/2000/svg" xmlns:xlink="http://www.w3.org/1999/xlink">
<g id="graph0" class="graph" transform="scale(1 1) rotate(0) translate(4 280)">
<title>dependencies</title>
<polygon fill="white" stroke="transparent" points="-4,4 -4,-280 1010,-280 1010,4 -4,4"/>
<text text-anchor="start" x="482.01" y="-42.4" font-family="sans-serif" font-weight="bold" font-size="14.00">Legend</text>
<polygon fill="#ffffb3" stroke="transparent" points="269,-10 269,-30 289,-30 289,-10 269,-10"/>
<text text-anchor="start" x="292.63" y="-15.4" font-family="sans-serif" font-size="14.00"> &#160;Declarations</text>
<polygon fill="#8dd3c7" stroke="transparent" points="382,-10 382,-30 402,-30 402,-10 382,-10"/>
<text text-anchor="start" x="405.73" y="-15.4" font-family="sans-serif" font-size="14.00"> &#160;Module</text>
<polygon fill="#80b1d3" stroke="transparent" points="468,-10 468,-30 488,-30 488,-10 468,-10"/>
<text text-anchor="start" x="491.78" y="-15.4" font-family="sans-serif" font-size="14.00"> &#160;Bootstrap</text>
<polygon fill="#fdb462" stroke="transparent" points="565,-10 565,-30 585,-30 585,-10 565,-10"/>
<text text-anchor="start" x="588.67" y="-15.4" font-family="sans-serif" font-size="14.00"> &#160;Providers</text>
<polygon fill="#fb8072" stroke="transparent" points="661,-10 661,-30 681,-30 681,-10 661,-10"/>
<text text-anchor="start" x="684.73" y="-15.4" font-family="sans-serif" font-size="14.00"> &#160;Exports</text>
<g id="clust1" class="cluster">
<title>cluster_CoreModule</title>
<polygon fill="none" stroke="black" stroke-dasharray="1,5" points="8,-70 8,-268 998,-268 998,-70 8,-70"/>
</g>
<g id="clust7" class="cluster">
<title>cluster_CoreModule_exports</title>
<polygon fill="none" stroke="black" points="16,-208 16,-260 990,-260 990,-208 16,-208"/>
</g>
<g id="clust2" class="cluster">
<title>cluster_CoreModule_declarations</title>
<polygon fill="none" stroke="black" points="289,-78 289,-130 685,-130 685,-78 289,-78"/>
</g>
<!-- FooterComponent -->
<g id="node1" class="node">
<title>FooterComponent</title>
<polygon fill="#ffffb3" stroke="black" points="676.88,-122 559.12,-122 559.12,-86 676.88,-86 676.88,-122"/>
<text text-anchor="middle" x="618" y="-99.8" font-family="Times,serif" font-size="14.00">FooterComponent</text>
</g>
<!-- CoreModule -->
<g id="node4" class="node">
<title>CoreModule</title>
<polygon fill="#8dd3c7" stroke="black" points="523.26,-187 520.26,-191 499.26,-191 496.26,-187 436.74,-187 436.74,-151 523.26,-151 523.26,-187"/>
<text text-anchor="middle" x="480" y="-164.8" font-family="Times,serif" font-size="14.00">CoreModule</text>
</g>
<!-- FooterComponent&#45;&gt;CoreModule -->
<g id="edge1" class="edge">
<title>FooterComponent&#45;&gt;CoreModule</title>
<path fill="none" stroke="black" d="M573.65,-122.01C573.65,-138.05 573.65,-159 573.65,-159 573.65,-159 533.26,-159 533.26,-159"/>
<polygon fill="black" stroke="black" points="533.26,-155.5 523.26,-159 533.26,-162.5 533.26,-155.5"/>
</g>
<!-- HeaderComponent -->
<g id="node2" class="node">
<title>HeaderComponent</title>
<polygon fill="#ffffb3" stroke="black" points="540.74,-122 419.26,-122 419.26,-86 540.74,-86 540.74,-122"/>
<text text-anchor="middle" x="480" y="-99.8" font-family="Times,serif" font-size="14.00">HeaderComponent</text>
</g>
<!-- HeaderComponent&#45;&gt;CoreModule -->
<g id="edge2" class="edge">
<title>HeaderComponent&#45;&gt;CoreModule</title>
<path fill="none" stroke="black" d="M480,-122.11C480,-122.11 480,-140.99 480,-140.99"/>
<polygon fill="black" stroke="black" points="476.5,-140.99 480,-150.99 483.5,-140.99 476.5,-140.99"/>
</g>
<!-- NavComponent -->
<g id="node3" class="node">
<title>NavComponent</title>
<polygon fill="#ffffb3" stroke="black" points="401.15,-122 296.85,-122 296.85,-86 401.15,-86 401.15,-122"/>
<text text-anchor="middle" x="349" y="-99.8" font-family="Times,serif" font-size="14.00">NavComponent</text>
</g>
<!-- NavComponent&#45;&gt;CoreModule -->
<g id="edge3" class="edge">
<title>NavComponent&#45;&gt;CoreModule</title>
<path fill="none" stroke="black" d="M383.62,-122.01C383.62,-138.05 383.62,-159 383.62,-159 383.62,-159 426.61,-159 426.61,-159"/>
<polygon fill="black" stroke="black" points="426.61,-162.5 436.61,-159 426.61,-155.5 426.61,-162.5"/>
</g>
<!-- FooterComponent  -->
<g id="node5" class="node">
<title>FooterComponent </title>
<polygon fill="#fb8072" stroke="black" points="981.88,-252 860.12,-252 860.12,-216 981.88,-216 981.88,-252"/>
<text text-anchor="middle" x="921" y="-229.8" font-family="Times,serif" font-size="14.00">FooterComponent </text>
</g>
<!-- CoreModule&#45;&gt;FooterComponent  -->
<g id="edge4" class="edge">
<title>CoreModule&#45;&gt;FooterComponent </title>
<path fill="none" stroke="black" stroke-dasharray="5,2" d="M523.49,-166C634.75,-166 921,-166 921,-166 921,-166 921,-205.78 921,-205.78"/>
<polygon fill="black" stroke="black" points="917.5,-205.78 921,-215.78 924.5,-205.78 917.5,-205.78"/>
</g>
<!-- HeaderComponent  -->
<g id="node6" class="node">
<title>HeaderComponent </title>
<polygon fill="#fb8072" stroke="black" points="842.74,-252 717.26,-252 717.26,-216 842.74,-216 842.74,-252"/>
<text text-anchor="middle" x="780" y="-229.8" font-family="Times,serif" font-size="14.00">HeaderComponent </text>
</g>
<!-- CoreModule&#45;&gt;HeaderComponent  -->
<g id="edge5" class="edge">
<title>CoreModule&#45;&gt;HeaderComponent </title>
<path fill="none" stroke="black" stroke-dasharray="5,2" d="M523.3,-173C606.38,-173 780,-173 780,-173 780,-173 780,-205.7 780,-205.7"/>
<polygon fill="black" stroke="black" points="776.5,-205.7 780,-215.7 783.5,-205.7 776.5,-205.7"/>
</g>
<!-- IconsModule  -->
<g id="node7" class="node">
<title>IconsModule </title>
<polygon fill="#fb8072" stroke="black" points="699.87,-252 606.13,-252 606.13,-216 699.87,-216 699.87,-252"/>
<text text-anchor="middle" x="653" y="-229.8" font-family="Times,serif" font-size="14.00">IconsModule </text>
</g>
<!-- CoreModule&#45;&gt;IconsModule  -->
<g id="edge6" class="edge">
<title>CoreModule&#45;&gt;IconsModule </title>
<path fill="none" stroke="black" stroke-dasharray="5,2" d="M523.31,-180C571.19,-180 641.63,-180 641.63,-180 641.63,-180 641.63,-205.72 641.63,-205.72"/>
<polygon fill="black" stroke="black" points="638.13,-205.72 641.63,-215.72 645.13,-205.72 638.13,-205.72"/>
</g>
<!-- LoginModule  -->
<g id="node8" class="node">
<title>LoginModule </title>
<polygon fill="#fb8072" stroke="black" points="588.49,-252 491.51,-252 491.51,-216 588.49,-216 588.49,-252"/>
<text text-anchor="middle" x="540" y="-229.8" font-family="Times,serif" font-size="14.00">LoginModule </text>
</g>
<!-- CoreModule&#45;&gt;LoginModule  -->
<g id="edge7" class="edge">
<title>CoreModule&#45;&gt;LoginModule </title>
<path fill="none" stroke="black" stroke-dasharray="5,2" d="M507.57,-187.11C507.57,-187.11 507.57,-205.99 507.57,-205.99"/>
<polygon fill="black" stroke="black" points="504.07,-205.99 507.57,-215.99 511.07,-205.99 504.07,-205.99"/>
</g>
<!-- NavComponent  -->
<g id="node9" class="node">
<title>NavComponent </title>
<polygon fill="#fb8072" stroke="black" points="474.15,-252 365.85,-252 365.85,-216 474.15,-216 474.15,-252"/>
<text text-anchor="middle" x="420" y="-229.8" font-family="Times,serif" font-size="14.00">NavComponent </text>
</g>
<!-- CoreModule&#45;&gt;NavComponent  -->
<g id="edge8" class="edge">
<title>CoreModule&#45;&gt;NavComponent </title>
<path fill="none" stroke="black" stroke-dasharray="5,2" d="M455.35,-187.11C455.35,-187.11 455.35,-205.99 455.35,-205.99"/>
<polygon fill="black" stroke="black" points="451.85,-205.99 455.35,-215.99 458.85,-205.99 451.85,-205.99"/>
</g>
<!-- TemplatesModule  -->
<g id="node10" class="node">
<title>TemplatesModule </title>
<polygon fill="#fb8072" stroke="black" points="347.86,-252 226.14,-252 226.14,-216 347.86,-216 347.86,-252"/>
<text text-anchor="middle" x="287" y="-229.8" font-family="Times,serif" font-size="14.00">TemplatesModule </text>
</g>
<!-- CoreModule&#45;&gt;TemplatesModule  -->
<g id="edge9" class="edge">
<title>CoreModule&#45;&gt;TemplatesModule </title>
<path fill="none" stroke="black" stroke-dasharray="5,2" d="M436.46,-180C389.74,-180 322.18,-180 322.18,-180 322.18,-180 322.18,-205.72 322.18,-205.72"/>
<polygon fill="black" stroke="black" points="318.68,-205.72 322.18,-215.72 325.68,-205.72 318.68,-205.72"/>
</g>
<!-- TextModule  -->
<g id="node11" class="node">
<title>TextModule </title>
<polygon fill="#fb8072" stroke="black" points="208.21,-252 119.79,-252 119.79,-216 208.21,-216 208.21,-252"/>
<text text-anchor="middle" x="164" y="-229.8" font-family="Times,serif" font-size="14.00">TextModule </text>
</g>
<!-- CoreModule&#45;&gt;TextModule  -->
<g id="edge10" class="edge">
<title>CoreModule&#45;&gt;TextModule </title>
<path fill="none" stroke="black" stroke-dasharray="5,2" d="M436.72,-173C350.18,-173 164,-173 164,-173 164,-173 164,-205.7 164,-205.7"/>
<polygon fill="black" stroke="black" points="160.5,-205.7 164,-215.7 167.5,-205.7 160.5,-205.7"/>
</g>
<!-- UiModule  -->
<g id="node12" class="node">
<title>UiModule </title>
<polygon fill="#fb8072" stroke="black" points="101.55,-252 24.45,-252 24.45,-216 101.55,-216 101.55,-252"/>
<text text-anchor="middle" x="63" y="-229.8" font-family="Times,serif" font-size="14.00">UiModule </text>
</g>
<!-- CoreModule&#45;&gt;UiModule  -->
<g id="edge11" class="edge">
<title>CoreModule&#45;&gt;UiModule </title>
<path fill="none" stroke="black" stroke-dasharray="5,2" d="M436.55,-166C329.75,-166 63,-166 63,-166 63,-166 63,-205.78 63,-205.78"/>
<polygon fill="black" stroke="black" points="59.5,-205.78 63,-215.78 66.5,-205.78 59.5,-205.78"/>
</g>
</g>
</svg>
