<?xml version="1.0" encoding="UTF-8" standalone="no"?>
<!DOCTYPE svg PUBLIC "-//W3C//DTD SVG 1.1//EN"
 "http://www.w3.org/Graphics/SVG/1.1/DTD/svg11.dtd">
<!-- Generated by graphviz version 2.44.0 (20200408.0750)
 -->
<!-- Title: dependencies Pages: 1 -->
<svg width="966pt" height="284pt"
 viewBox="0.00 0.00 966.00 284.00" xmlns="http://www.w3.org/2000/svg" xmlns:xlink="http://www.w3.org/1999/xlink">
<g id="graph0" class="graph" transform="scale(1 1) rotate(0) translate(4 280)">
<title>dependencies</title>
<polygon fill="white" stroke="transparent" points="-4,4 -4,-280 962,-280 962,4 -4,4"/>
<text text-anchor="start" x="458.01" y="-42.4" font-family="sans-serif" font-weight="bold" font-size="14.00">Legend</text>
<polygon fill="#ffffb3" stroke="transparent" points="245,-10 245,-30 265,-30 265,-10 245,-10"/>
<text text-anchor="start" x="268.63" y="-15.4" font-family="sans-serif" font-size="14.00"> &#160;Declarations</text>
<polygon fill="#8dd3c7" stroke="transparent" points="358,-10 358,-30 378,-30 378,-10 358,-10"/>
<text text-anchor="start" x="381.73" y="-15.4" font-family="sans-serif" font-size="14.00"> &#160;Module</text>
<polygon fill="#80b1d3" stroke="transparent" points="444,-10 444,-30 464,-30 464,-10 444,-10"/>
<text text-anchor="start" x="467.78" y="-15.4" font-family="sans-serif" font-size="14.00"> &#160;Bootstrap</text>
<polygon fill="#fdb462" stroke="transparent" points="541,-10 541,-30 561,-30 561,-10 541,-10"/>
<text text-anchor="start" x="564.67" y="-15.4" font-family="sans-serif" font-size="14.00"> &#160;Providers</text>
<polygon fill="#fb8072" stroke="transparent" points="637,-10 637,-30 657,-30 657,-10 637,-10"/>
<text text-anchor="start" x="660.73" y="-15.4" font-family="sans-serif" font-size="14.00"> &#160;Exports</text>
<g id="clust1" class="cluster">
<title>cluster_TextModule</title>
<polygon fill="none" stroke="black" stroke-dasharray="1,5" points="8,-70 8,-268 950,-268 950,-70 8,-70"/>
</g>
<g id="clust2" class="cluster">
<title>cluster_TextModule_declarations</title>
<polygon fill="none" stroke="black" points="26,-78 26,-130 934,-130 934,-78 26,-78"/>
</g>
<g id="clust9" class="cluster">
<title>cluster_TextModule_exports</title>
<polygon fill="none" stroke="black" points="16,-208 16,-260 942,-260 942,-208 16,-208"/>
</g>
<!-- TextAlertErrorComponent -->
<g id="node1" class="node">
<title>TextAlertErrorComponent</title>
<polygon fill="#ffffb3" stroke="black" points="925.79,-122 760.21,-122 760.21,-86 925.79,-86 925.79,-122"/>
<text text-anchor="middle" x="843" y="-99.8" font-family="Times,serif" font-size="14.00">TextAlertErrorComponent</text>
</g>
<!-- TextModule -->
<g id="node6" class="node">
<title>TextModule</title>
<polygon fill="#8dd3c7" stroke="black" points="494.71,-187 491.71,-191 470.71,-191 467.71,-187 409.29,-187 409.29,-151 494.71,-151 494.71,-187"/>
<text text-anchor="middle" x="452" y="-164.8" font-family="Times,serif" font-size="14.00">TextModule</text>
</g>
<!-- TextAlertErrorComponent&#45;&gt;TextModule -->
<g id="edge1" class="edge">
<title>TextAlertErrorComponent&#45;&gt;TextModule</title>
<path fill="none" stroke="black" d="M872.3,-122.27C872.3,-140.56 872.3,-166 872.3,-166 872.3,-166 504.61,-166 504.61,-166"/>
<polygon fill="black" stroke="black" points="504.61,-162.5 494.61,-166 504.61,-169.5 504.61,-162.5"/>
</g>
<!-- TextAlertSuccessComponent -->
<g id="node2" class="node">
<title>TextAlertSuccessComponent</title>
<polygon fill="#ffffb3" stroke="black" points="742.07,-122 561.93,-122 561.93,-86 742.07,-86 742.07,-122"/>
<text text-anchor="middle" x="652" y="-99.8" font-family="Times,serif" font-size="14.00">TextAlertSuccessComponent</text>
</g>
<!-- TextAlertSuccessComponent&#45;&gt;TextModule -->
<g id="edge2" class="edge">
<title>TextAlertSuccessComponent&#45;&gt;TextModule</title>
<path fill="none" stroke="black" d="M682.76,-122.01C682.76,-138.05 682.76,-159 682.76,-159 682.76,-159 504.86,-159 504.86,-159"/>
<polygon fill="black" stroke="black" points="504.86,-155.5 494.86,-159 504.86,-162.5 504.86,-155.5"/>
</g>
<!-- TextAlertWarningComponent -->
<g id="node3" class="node">
<title>TextAlertWarningComponent</title>
<polygon fill="#ffffb3" stroke="black" points="544.23,-122 359.77,-122 359.77,-86 544.23,-86 544.23,-122"/>
<text text-anchor="middle" x="452" y="-99.8" font-family="Times,serif" font-size="14.00">TextAlertWarningComponent</text>
</g>
<!-- TextAlertWarningComponent&#45;&gt;TextModule -->
<g id="edge3" class="edge">
<title>TextAlertWarningComponent&#45;&gt;TextModule</title>
<path fill="none" stroke="black" d="M452,-122.11C452,-122.11 452,-140.99 452,-140.99"/>
<polygon fill="black" stroke="black" points="448.5,-140.99 452,-150.99 455.5,-140.99 448.5,-140.99"/>
</g>
<!-- TextBandeauComponent -->
<g id="node4" class="node">
<title>TextBandeauComponent</title>
<polygon fill="#ffffb3" stroke="black" points="341.97,-122 186.03,-122 186.03,-86 341.97,-86 341.97,-122"/>
<text text-anchor="middle" x="264" y="-99.8" font-family="Times,serif" font-size="14.00">TextBandeauComponent</text>
</g>
<!-- TextBandeauComponent&#45;&gt;TextModule -->
<g id="edge4" class="edge">
<title>TextBandeauComponent&#45;&gt;TextModule</title>
<path fill="none" stroke="black" d="M288.5,-122.01C288.5,-138.05 288.5,-159 288.5,-159 288.5,-159 399.04,-159 399.04,-159"/>
<polygon fill="black" stroke="black" points="399.04,-162.5 409.04,-159 399.04,-155.5 399.04,-162.5"/>
</g>
<!-- TextPageComponent -->
<g id="node5" class="node">
<title>TextPageComponent</title>
<polygon fill="#ffffb3" stroke="black" points="168.2,-122 33.8,-122 33.8,-86 168.2,-86 168.2,-122"/>
<text text-anchor="middle" x="101" y="-99.8" font-family="Times,serif" font-size="14.00">TextPageComponent</text>
</g>
<!-- TextPageComponent&#45;&gt;TextModule -->
<g id="edge5" class="edge">
<title>TextPageComponent&#45;&gt;TextModule</title>
<path fill="none" stroke="black" d="M119.2,-122.27C119.2,-140.56 119.2,-166 119.2,-166 119.2,-166 399.17,-166 399.17,-166"/>
<polygon fill="black" stroke="black" points="399.17,-169.5 409.17,-166 399.17,-162.5 399.17,-169.5"/>
</g>
<!-- TextAlertErrorComponent  -->
<g id="node7" class="node">
<title>TextAlertErrorComponent </title>
<polygon fill="#fb8072" stroke="black" points="934.29,-252 765.71,-252 765.71,-216 934.29,-216 934.29,-252"/>
<text text-anchor="middle" x="850" y="-229.8" font-family="Times,serif" font-size="14.00">TextAlertErrorComponent </text>
</g>
<!-- TextModule&#45;&gt;TextAlertErrorComponent  -->
<g id="edge6" class="edge">
<title>TextModule&#45;&gt;TextAlertErrorComponent </title>
<path fill="none" stroke="black" stroke-dasharray="5,2" d="M494.81,-173C591.61,-173 818.95,-173 818.95,-173 818.95,-173 818.95,-205.7 818.95,-205.7"/>
<polygon fill="black" stroke="black" points="815.45,-205.7 818.95,-215.7 822.45,-205.7 815.45,-205.7"/>
</g>
<!-- TextAlertSuccessComponent  -->
<g id="node8" class="node">
<title>TextAlertSuccessComponent </title>
<polygon fill="#fb8072" stroke="black" points="747.57,-252 564.43,-252 564.43,-216 747.57,-216 747.57,-252"/>
<text text-anchor="middle" x="656" y="-229.8" font-family="Times,serif" font-size="14.00">TextAlertSuccessComponent </text>
</g>
<!-- TextModule&#45;&gt;TextAlertSuccessComponent  -->
<g id="edge7" class="edge">
<title>TextModule&#45;&gt;TextAlertSuccessComponent </title>
<path fill="none" stroke="black" stroke-dasharray="5,2" d="M494.83,-180C545.63,-180 623.49,-180 623.49,-180 623.49,-180 623.49,-205.72 623.49,-205.72"/>
<polygon fill="black" stroke="black" points="619.99,-205.72 623.49,-215.72 626.99,-205.72 619.99,-205.72"/>
</g>
<!-- TextAlertWarningComponent  -->
<g id="node9" class="node">
<title>TextAlertWarningComponent </title>
<polygon fill="#fb8072" stroke="black" points="546.23,-252 357.77,-252 357.77,-216 546.23,-216 546.23,-252"/>
<text text-anchor="middle" x="452" y="-229.8" font-family="Times,serif" font-size="14.00">TextAlertWarningComponent </text>
</g>
<!-- TextModule&#45;&gt;TextAlertWarningComponent  -->
<g id="edge8" class="edge">
<title>TextModule&#45;&gt;TextAlertWarningComponent </title>
<path fill="none" stroke="black" stroke-dasharray="5,2" d="M452,-187.11C452,-187.11 452,-205.99 452,-205.99"/>
<polygon fill="black" stroke="black" points="448.5,-205.99 452,-215.99 455.5,-205.99 448.5,-205.99"/>
</g>
<!-- TextBandeauComponent  -->
<g id="node10" class="node">
<title>TextBandeauComponent </title>
<polygon fill="#fb8072" stroke="black" points="339.97,-252 180.03,-252 180.03,-216 339.97,-216 339.97,-252"/>
<text text-anchor="middle" x="260" y="-229.8" font-family="Times,serif" font-size="14.00">TextBandeauComponent </text>
</g>
<!-- TextModule&#45;&gt;TextBandeauComponent  -->
<g id="edge9" class="edge">
<title>TextModule&#45;&gt;TextBandeauComponent </title>
<path fill="none" stroke="black" stroke-dasharray="5,2" d="M409.32,-180C346.69,-180 237.25,-180 237.25,-180 237.25,-180 237.25,-205.72 237.25,-205.72"/>
<polygon fill="black" stroke="black" points="233.75,-205.72 237.25,-215.72 240.75,-205.72 233.75,-205.72"/>
</g>
<!-- TextPageComponent  -->
<g id="node11" class="node">
<title>TextPageComponent </title>
<polygon fill="#fb8072" stroke="black" points="161.7,-252 24.3,-252 24.3,-216 161.7,-216 161.7,-252"/>
<text text-anchor="middle" x="93" y="-229.8" font-family="Times,serif" font-size="14.00">TextPageComponent </text>
</g>
<!-- TextModule&#45;&gt;TextPageComponent  -->
<g id="edge10" class="edge">
<title>TextModule&#45;&gt;TextPageComponent </title>
<path fill="none" stroke="black" stroke-dasharray="5,2" d="M409.3,-173C310.89,-173 76.55,-173 76.55,-173 76.55,-173 76.55,-205.7 76.55,-205.7"/>
<polygon fill="black" stroke="black" points="73.05,-205.7 76.55,-215.7 80.05,-205.7 73.05,-205.7"/>
</g>
</g>
</svg>
