<?xml version="1.0" encoding="UTF-8" standalone="no"?>
<!DOCTYPE svg PUBLIC "-//W3C//DTD SVG 1.1//EN"
 "http://www.w3.org/Graphics/SVG/1.1/DTD/svg11.dtd">
<!-- Generated by graphviz version 2.44.0 (20200408.0750)
 -->
<!-- Title: dependencies Pages: 1 -->
<svg width="868pt" height="211pt"
 viewBox="0.00 0.00 868.00 211.00" xmlns="http://www.w3.org/2000/svg" xmlns:xlink="http://www.w3.org/1999/xlink">
<g id="graph0" class="graph" transform="scale(1 1) rotate(0) translate(4 207)">
<title>dependencies</title>
<polygon fill="white" stroke="transparent" points="-4,4 -4,-207 864,-207 864,4 -4,4"/>
<text text-anchor="start" x="409.01" y="-42.4" font-family="sans-serif" font-weight="bold" font-size="14.00">Legend</text>
<polygon fill="#ffffb3" stroke="transparent" points="196,-10 196,-30 216,-30 216,-10 196,-10"/>
<text text-anchor="start" x="219.63" y="-15.4" font-family="sans-serif" font-size="14.00"> &#160;Declarations</text>
<polygon fill="#8dd3c7" stroke="transparent" points="309,-10 309,-30 329,-30 329,-10 309,-10"/>
<text text-anchor="start" x="332.73" y="-15.4" font-family="sans-serif" font-size="14.00"> &#160;Module</text>
<polygon fill="#80b1d3" stroke="transparent" points="395,-10 395,-30 415,-30 415,-10 395,-10"/>
<text text-anchor="start" x="418.78" y="-15.4" font-family="sans-serif" font-size="14.00"> &#160;Bootstrap</text>
<polygon fill="#fdb462" stroke="transparent" points="492,-10 492,-30 512,-30 512,-10 492,-10"/>
<text text-anchor="start" x="515.67" y="-15.4" font-family="sans-serif" font-size="14.00"> &#160;Providers</text>
<polygon fill="#fb8072" stroke="transparent" points="588,-10 588,-30 608,-30 608,-10 588,-10"/>
<text text-anchor="start" x="611.73" y="-15.4" font-family="sans-serif" font-size="14.00"> &#160;Exports</text>
<g id="clust1" class="cluster">
<title>cluster_OrdersModule</title>
<polygon fill="none" stroke="black" stroke-dasharray="1,5" points="8,-70 8,-195 852,-195 852,-70 8,-70"/>
</g>
<g id="clust6" class="cluster">
<title>cluster_OrdersModule_imports</title>
<polygon fill="none" stroke="black" points="569,-78 569,-130 844,-130 844,-78 569,-78"/>
</g>
<g id="clust2" class="cluster">
<title>cluster_OrdersModule_declarations</title>
<polygon fill="none" stroke="black" points="16,-78 16,-130 561,-130 561,-78 16,-78"/>
</g>
<!-- PageAddOrderComponent -->
<g id="node1" class="node">
<title>PageAddOrderComponent</title>
<polygon fill="#ffffb3" stroke="black" points="552.79,-122 387.21,-122 387.21,-86 552.79,-86 552.79,-122"/>
<text text-anchor="middle" x="470" y="-99.8" font-family="Times,serif" font-size="14.00">PageAddOrderComponent</text>
</g>
<!-- OrdersModule -->
<g id="node4" class="node">
<title>OrdersModule</title>
<polygon fill="#8dd3c7" stroke="black" points="518.64,-187 515.64,-191 494.64,-191 491.64,-187 421.36,-187 421.36,-151 518.64,-151 518.64,-187"/>
<text text-anchor="middle" x="470" y="-164.8" font-family="Times,serif" font-size="14.00">OrdersModule</text>
</g>
<!-- PageAddOrderComponent&#45;&gt;OrdersModule -->
<g id="edge1" class="edge">
<title>PageAddOrderComponent&#45;&gt;OrdersModule</title>
<path fill="none" stroke="black" d="M470,-122.11C470,-122.11 470,-140.99 470,-140.99"/>
<polygon fill="black" stroke="black" points="466.5,-140.99 470,-150.99 473.5,-140.99 466.5,-140.99"/>
</g>
<!-- PageEditOrderComponent -->
<g id="node2" class="node">
<title>PageEditOrderComponent</title>
<polygon fill="#ffffb3" stroke="black" points="369.02,-122 204.98,-122 204.98,-86 369.02,-86 369.02,-122"/>
<text text-anchor="middle" x="287" y="-99.8" font-family="Times,serif" font-size="14.00">PageEditOrderComponent</text>
</g>
<!-- PageEditOrderComponent&#45;&gt;OrdersModule -->
<g id="edge2" class="edge">
<title>PageEditOrderComponent&#45;&gt;OrdersModule</title>
<path fill="none" stroke="black" d="M287,-122.02C287,-139.37 287,-163 287,-163 287,-163 410.96,-163 410.96,-163"/>
<polygon fill="black" stroke="black" points="410.96,-166.5 420.96,-163 410.96,-159.5 410.96,-166.5"/>
</g>
<!-- PageListOrderComponent -->
<g id="node3" class="node">
<title>PageListOrderComponent</title>
<polygon fill="#ffffb3" stroke="black" points="186.47,-122 23.53,-122 23.53,-86 186.47,-86 186.47,-122"/>
<text text-anchor="middle" x="105" y="-99.8" font-family="Times,serif" font-size="14.00">PageListOrderComponent</text>
</g>
<!-- PageListOrderComponent&#45;&gt;OrdersModule -->
<g id="edge3" class="edge">
<title>PageListOrderComponent&#45;&gt;OrdersModule</title>
<path fill="none" stroke="black" d="M105,-122.28C105,-143.32 105,-175 105,-175 105,-175 411.15,-175 411.15,-175"/>
<polygon fill="black" stroke="black" points="411.15,-178.5 421.15,-175 411.15,-171.5 411.15,-178.5"/>
</g>
<!-- OrdersRoutingModule -->
<g id="node5" class="node">
<title>OrdersRoutingModule</title>
<polygon fill="#8dd3c7" stroke="black" points="836.25,-122 833.25,-126 812.25,-126 809.25,-122 693.75,-122 693.75,-86 836.25,-86 836.25,-122"/>
<text text-anchor="middle" x="765" y="-99.8" font-family="Times,serif" font-size="14.00">OrdersRoutingModule</text>
</g>
<!-- OrdersRoutingModule&#45;&gt;OrdersModule -->
<g id="edge4" class="edge">
<title>OrdersRoutingModule&#45;&gt;OrdersModule</title>
<path fill="none" stroke="black" d="M765,-122.28C765,-143.32 765,-175 765,-175 765,-175 528.71,-175 528.71,-175"/>
<polygon fill="black" stroke="black" points="528.71,-171.5 518.71,-175 528.71,-178.5 528.71,-171.5"/>
</g>
<!-- SharedModule -->
<g id="node6" class="node">
<title>SharedModule</title>
<polygon fill="#8dd3c7" stroke="black" points="675.42,-122 672.42,-126 651.42,-126 648.42,-122 576.58,-122 576.58,-86 675.42,-86 675.42,-122"/>
<text text-anchor="middle" x="626" y="-99.8" font-family="Times,serif" font-size="14.00">SharedModule</text>
</g>
<!-- SharedModule&#45;&gt;OrdersModule -->
<g id="edge5" class="edge">
<title>SharedModule&#45;&gt;OrdersModule</title>
<path fill="none" stroke="black" d="M626,-122.02C626,-139.37 626,-163 626,-163 626,-163 528.93,-163 528.93,-163"/>
<polygon fill="black" stroke="black" points="528.93,-159.5 518.93,-163 528.93,-166.5 528.93,-159.5"/>
</g>
</g>
</svg>
