<?xml version="1.0" encoding="UTF-8" standalone="no"?>
<!DOCTYPE svg PUBLIC "-//W3C//DTD SVG 1.1//EN"
 "http://www.w3.org/Graphics/SVG/1.1/DTD/svg11.dtd">
<!-- Generated by graphviz version 2.44.0 (20200408.0750)
 -->
<!-- Title: dependencies Pages: 1 -->
<svg width="890pt" height="211pt"
 viewBox="0.00 0.00 890.00 211.00" xmlns="http://www.w3.org/2000/svg" xmlns:xlink="http://www.w3.org/1999/xlink">
<g id="graph0" class="graph" transform="scale(1 1) rotate(0) translate(4 207)">
<title>dependencies</title>
<polygon fill="white" stroke="transparent" points="-4,4 -4,-207 886,-207 886,4 -4,4"/>
<text text-anchor="start" x="420.01" y="-42.4" font-family="sans-serif" font-weight="bold" font-size="14.00">Legend</text>
<polygon fill="#ffffb3" stroke="transparent" points="207,-10 207,-30 227,-30 227,-10 207,-10"/>
<text text-anchor="start" x="230.63" y="-15.4" font-family="sans-serif" font-size="14.00"> &#160;Declarations</text>
<polygon fill="#8dd3c7" stroke="transparent" points="320,-10 320,-30 340,-30 340,-10 320,-10"/>
<text text-anchor="start" x="343.73" y="-15.4" font-family="sans-serif" font-size="14.00"> &#160;Module</text>
<polygon fill="#80b1d3" stroke="transparent" points="406,-10 406,-30 426,-30 426,-10 406,-10"/>
<text text-anchor="start" x="429.78" y="-15.4" font-family="sans-serif" font-size="14.00"> &#160;Bootstrap</text>
<polygon fill="#fdb462" stroke="transparent" points="503,-10 503,-30 523,-30 523,-10 503,-10"/>
<text text-anchor="start" x="526.67" y="-15.4" font-family="sans-serif" font-size="14.00"> &#160;Providers</text>
<polygon fill="#fb8072" stroke="transparent" points="599,-10 599,-30 619,-30 619,-10 599,-10"/>
<text text-anchor="start" x="622.73" y="-15.4" font-family="sans-serif" font-size="14.00"> &#160;Exports</text>
<g id="clust1" class="cluster">
<title>cluster_ClientsModule</title>
<polygon fill="none" stroke="black" stroke-dasharray="1,5" points="8,-70 8,-195 874,-195 874,-70 8,-70"/>
</g>
<g id="clust2" class="cluster">
<title>cluster_ClientsModule_declarations</title>
<polygon fill="none" stroke="black" points="300,-78 300,-130 866,-130 866,-78 300,-78"/>
</g>
<g id="clust6" class="cluster">
<title>cluster_ClientsModule_imports</title>
<polygon fill="none" stroke="black" points="16,-78 16,-130 292,-130 292,-78 16,-78"/>
</g>
<!-- PageAddClientsComponent -->
<g id="node1" class="node">
<title>PageAddClientsComponent</title>
<polygon fill="#ffffb3" stroke="black" points="858.32,-122 685.68,-122 685.68,-86 858.32,-86 858.32,-122"/>
<text text-anchor="middle" x="772" y="-99.8" font-family="Times,serif" font-size="14.00">PageAddClientsComponent</text>
</g>
<!-- ClientsModule -->
<g id="node4" class="node">
<title>ClientsModule</title>
<polygon fill="#8dd3c7" stroke="black" points="442.72,-187 439.72,-191 418.72,-191 415.72,-187 343.28,-187 343.28,-151 442.72,-151 442.72,-187"/>
<text text-anchor="middle" x="393" y="-164.8" font-family="Times,serif" font-size="14.00">ClientsModule</text>
</g>
<!-- PageAddClientsComponent&#45;&gt;ClientsModule -->
<g id="edge1" class="edge">
<title>PageAddClientsComponent&#45;&gt;ClientsModule</title>
<path fill="none" stroke="black" d="M772,-122.28C772,-143.32 772,-175 772,-175 772,-175 452.94,-175 452.94,-175"/>
<polygon fill="black" stroke="black" points="452.94,-171.5 442.94,-175 452.94,-178.5 452.94,-171.5"/>
</g>
<!-- PageEditClientsComponent -->
<g id="node2" class="node">
<title>PageEditClientsComponent</title>
<polygon fill="#ffffb3" stroke="black" points="667.55,-122 496.45,-122 496.45,-86 667.55,-86 667.55,-122"/>
<text text-anchor="middle" x="582" y="-99.8" font-family="Times,serif" font-size="14.00">PageEditClientsComponent</text>
</g>
<!-- PageEditClientsComponent&#45;&gt;ClientsModule -->
<g id="edge2" class="edge">
<title>PageEditClientsComponent&#45;&gt;ClientsModule</title>
<path fill="none" stroke="black" d="M582,-122.02C582,-139.37 582,-163 582,-163 582,-163 452.66,-163 452.66,-163"/>
<polygon fill="black" stroke="black" points="452.66,-159.5 442.66,-163 452.66,-166.5 452.66,-159.5"/>
</g>
<!-- PageListClientsComponent -->
<g id="node3" class="node">
<title>PageListClientsComponent</title>
<polygon fill="#ffffb3" stroke="black" points="477.99,-122 308.01,-122 308.01,-86 477.99,-86 477.99,-122"/>
<text text-anchor="middle" x="393" y="-99.8" font-family="Times,serif" font-size="14.00">PageListClientsComponent</text>
</g>
<!-- PageListClientsComponent&#45;&gt;ClientsModule -->
<g id="edge3" class="edge">
<title>PageListClientsComponent&#45;&gt;ClientsModule</title>
<path fill="none" stroke="black" d="M393,-122.11C393,-122.11 393,-140.99 393,-140.99"/>
<polygon fill="black" stroke="black" points="389.5,-140.99 393,-150.99 396.5,-140.99 389.5,-140.99"/>
</g>
<!-- ClientsRoutingModule -->
<g id="node5" class="node">
<title>ClientsRoutingModule</title>
<polygon fill="#8dd3c7" stroke="black" points="284.34,-122 281.34,-126 260.34,-126 257.34,-122 139.66,-122 139.66,-86 284.34,-86 284.34,-122"/>
<text text-anchor="middle" x="212" y="-99.8" font-family="Times,serif" font-size="14.00">ClientsRoutingModule</text>
</g>
<!-- ClientsRoutingModule&#45;&gt;ClientsModule -->
<g id="edge4" class="edge">
<title>ClientsRoutingModule&#45;&gt;ClientsModule</title>
<path fill="none" stroke="black" d="M212,-122.02C212,-139.37 212,-163 212,-163 212,-163 333.06,-163 333.06,-163"/>
<polygon fill="black" stroke="black" points="333.06,-166.5 343.06,-163 333.06,-159.5 333.06,-166.5"/>
</g>
<!-- SharedModule -->
<g id="node6" class="node">
<title>SharedModule</title>
<polygon fill="#8dd3c7" stroke="black" points="122.42,-122 119.42,-126 98.42,-126 95.42,-122 23.58,-122 23.58,-86 122.42,-86 122.42,-122"/>
<text text-anchor="middle" x="73" y="-99.8" font-family="Times,serif" font-size="14.00">SharedModule</text>
</g>
<!-- SharedModule&#45;&gt;ClientsModule -->
<g id="edge5" class="edge">
<title>SharedModule&#45;&gt;ClientsModule</title>
<path fill="none" stroke="black" d="M73,-122.28C73,-143.32 73,-175 73,-175 73,-175 333.35,-175 333.35,-175"/>
<polygon fill="black" stroke="black" points="333.35,-178.5 343.35,-175 333.35,-171.5 333.35,-178.5"/>
</g>
</g>
</svg>
