<?xml version="1.0" encoding="UTF-8" standalone="no"?>
<!DOCTYPE svg PUBLIC "-//W3C//DTD SVG 1.1//EN"
 "http://www.w3.org/Graphics/SVG/1.1/DTD/svg11.dtd">
<!-- Generated by graphviz version 2.44.0 (20200408.0750)
 -->
<!-- Title: dependencies Pages: 1 -->
<svg width="504pt" height="211pt"
 viewBox="0.00 0.00 504.00 211.00" xmlns="http://www.w3.org/2000/svg" xmlns:xlink="http://www.w3.org/1999/xlink">
<g id="graph0" class="graph" transform="scale(1 1) rotate(0) translate(4 207)">
<title>dependencies</title>
<polygon fill="white" stroke="transparent" points="-4,4 -4,-207 500,-207 500,4 -4,4"/>
<text text-anchor="start" x="227.01" y="-42.4" font-family="sans-serif" font-weight="bold" font-size="14.00">Legend</text>
<polygon fill="#ffffb3" stroke="transparent" points="14,-10 14,-30 34,-30 34,-10 14,-10"/>
<text text-anchor="start" x="37.63" y="-15.4" font-family="sans-serif" font-size="14.00"> &#160;Declarations</text>
<polygon fill="#8dd3c7" stroke="transparent" points="127,-10 127,-30 147,-30 147,-10 127,-10"/>
<text text-anchor="start" x="150.73" y="-15.4" font-family="sans-serif" font-size="14.00"> &#160;Module</text>
<polygon fill="#80b1d3" stroke="transparent" points="213,-10 213,-30 233,-30 233,-10 213,-10"/>
<text text-anchor="start" x="236.78" y="-15.4" font-family="sans-serif" font-size="14.00"> &#160;Bootstrap</text>
<polygon fill="#fdb462" stroke="transparent" points="310,-10 310,-30 330,-30 330,-10 310,-10"/>
<text text-anchor="start" x="333.67" y="-15.4" font-family="sans-serif" font-size="14.00"> &#160;Providers</text>
<polygon fill="#fb8072" stroke="transparent" points="406,-10 406,-30 426,-30 426,-10 406,-10"/>
<text text-anchor="start" x="429.73" y="-15.4" font-family="sans-serif" font-size="14.00"> &#160;Exports</text>
<g id="clust1" class="cluster">
<title>cluster_NotFoundModule</title>
<polygon fill="none" stroke="black" stroke-dasharray="1,5" points="56,-70 56,-195 440,-195 440,-70 56,-70"/>
</g>
<g id="clust2" class="cluster">
<title>cluster_NotFoundModule_declarations</title>
<polygon fill="none" stroke="black" points="250,-78 250,-130 432,-130 432,-78 250,-78"/>
</g>
<g id="clust4" class="cluster">
<title>cluster_NotFoundModule_imports</title>
<polygon fill="none" stroke="black" points="64,-78 64,-130 242,-130 242,-78 64,-78"/>
</g>
<!-- PageNotFoundComponent -->
<g id="node1" class="node">
<title>PageNotFoundComponent</title>
<polygon fill="#ffffb3" stroke="black" points="423.82,-122 258.18,-122 258.18,-86 423.82,-86 423.82,-122"/>
<text text-anchor="middle" x="341" y="-99.8" font-family="Times,serif" font-size="14.00">PageNotFoundComponent</text>
</g>
<!-- NotFoundModule -->
<g id="node2" class="node">
<title>NotFoundModule</title>
<polygon fill="#8dd3c7" stroke="black" points="305.33,-187 302.33,-191 281.33,-191 278.33,-187 188.67,-187 188.67,-151 305.33,-151 305.33,-187"/>
<text text-anchor="middle" x="247" y="-164.8" font-family="Times,serif" font-size="14.00">NotFoundModule</text>
</g>
<!-- PageNotFoundComponent&#45;&gt;NotFoundModule -->
<g id="edge1" class="edge">
<title>PageNotFoundComponent&#45;&gt;NotFoundModule</title>
<path fill="none" stroke="black" d="M281.75,-122.11C281.75,-122.11 281.75,-140.99 281.75,-140.99"/>
<polygon fill="black" stroke="black" points="278.25,-140.99 281.75,-150.99 285.25,-140.99 278.25,-140.99"/>
</g>
<!-- NotFoundRoutingModule -->
<g id="node3" class="node">
<title>NotFoundRoutingModule</title>
<polygon fill="#8dd3c7" stroke="black" points="233.95,-122 230.95,-126 209.95,-126 206.95,-122 72.05,-122 72.05,-86 233.95,-86 233.95,-122"/>
<text text-anchor="middle" x="153" y="-99.8" font-family="Times,serif" font-size="14.00">NotFoundRoutingModule</text>
</g>
<!-- NotFoundRoutingModule&#45;&gt;NotFoundModule -->
<g id="edge2" class="edge">
<title>NotFoundRoutingModule&#45;&gt;NotFoundModule</title>
<path fill="none" stroke="black" d="M211.28,-122.11C211.28,-122.11 211.28,-140.99 211.28,-140.99"/>
<polygon fill="black" stroke="black" points="207.78,-140.99 211.28,-150.99 214.78,-140.99 207.78,-140.99"/>
</g>
</g>
</svg>
